<svg xmlns="http://www.w3.org/2000/svg" width="85" height="85" viewBox="0 0 85.1 85.1"><style>.a{fill:#010202;}</style><path d="M42.5 0C19.2 0 0 19.1 0 42.6 0 65.9 19.1 85.1 42.5 85.1 65.9 85.1 85.1 66 85.1 42.6 85 19.1 65.9 0 42.5 0zM42.5 81c-21.3 0-38.5-17.2-38.5-38.5S21.3 4.1 42.5 4.1c21.1 0 38.5 17.2 38.5 38.5S63.8 81 42.5 81z" class="a"/><path d="M25.6 35.6c1.9 0 3.4-1.5 3.4-3.4 0-1.9-1.6-3.4-3.4-3.4 -1.9 0-3.4 1.5-3.4 3.4C22.2 34.1 23.7 35.6 25.6 35.6z" class="a"/><path d="M59.4 35.6c1.9 0 3.4-1.5 3.4-3.4 0-1.9-1.6-3.4-3.4-3.4 -1.9 0-3.4 1.5-3.4 3.4C56.1 34.1 57.6 35.6 59.4 35.6z" class="a"/><path d="M64.2 56.6H20.8c-1.1 0-2 0.9-2 2s0.9 2 2 2h43.4c1.2 0 2.2-0.9 2-2C66.2 57.6 65.2 56.6 64.2 56.6z" class="a"/></svg>