<svg xmlns="http://www.w3.org/2000/svg" width="85" height="85" viewBox="0 0 85.1 85.1"><style>.a{fill:#010202;}</style><path d="M42.5 0C19.2 0 0 19.1 0 42.6c0 23.4 19.1 42.6 42.5 42.6 23.6 0 42.7-19.1 42.6-42.5C85.1 19.1 65.9 0 42.5 0zM42.5 80.8c-21.3 0-38.5-17.2-38.5-38.5S21.3 3.9 42.5 3.9c21.3 0 38.5 17.4 38.5 38.5C81 63.6 63.8 80.8 42.5 80.8z" class="a"/><path d="M25.6 35.4c1.9 0 3.4-1.5 3.4-3.4s-1.5-3.4-3.4-3.4c-1.9 0-3.4 1.5-3.4 3.4C22.3 33.9 23.8 35.4 25.6 35.4z" class="a"/><path d="M59.5 35.4c1.9 0 3.4-1.5 3.4-3.4s-1.5-3.4-3.4-3.4c-1.9 0-3.4 1.5-3.4 3.4S57.6 35.4 59.5 35.4z" class="a"/><path d="M65.4 54.2c-0.9-0.7-2.2-0.4-2.8 0.5 -4.2 6.5-11.7 10.4-20.1 10.4 -8.3 0-15.9-3.9-20.1-10.4 -0.7-0.9-1.9-1.2-2.8-0.5 -0.9 0.7-1.2 1.9-0.5 2.8 5 7.5 13.7 12.1 23.4 12.1 9.7 0 18.6-4.4 23.4-12.1C66.6 56 66.4 54.8 65.4 54.2z" class="a"/></svg>