<svg xmlns="http://www.w3.org/2000/svg" width="74" height="65" viewBox="0 0 73.7 64.9"><path d="M17.4 47.7c2.3 2.3 4.6 4.7 6.8 6.8 1.5 1.5 3 3 4.4 4.4l3.6 3.5 1.2 1.2c0.7 0.7 1.9 1.3 3.4 1.3 1.2 0 2.4-0.5 3.8-1.6 6.9-6.5 13.5-13 19.5-19.4l0.1-0.1c3.4-3.8 6.9-7.6 9.9-12.2 3.1-4.7 4.2-9.5 3.4-14.8 -0.8-6.1-4.2-10.4-9.7-13.9C60.5 1.1 56.9 0 53.4 0c-4.7 0-8.9 1.6-12.2 4.7 -0.8 0.9-1.8 1.9-2.7 3l-0.3 0.3c-0.1 0.1-0.1 0.3-0.3 0.4 -0.4 0.4-0.7 0.4-0.9 0.4 -0.5 0-0.9-0.3-1.2-0.5 -3-3.6-6.1-5.8-9.3-6.9 -2-0.7-4.2-1.1-6.3-1.1 -3.8 0-7.3 1.1-10.7 3.2C3.3 7.3 0 13.1 0 20.3c0 4.2 1.5 8.1 4.4 12.4C7.8 37.5 11.9 42.1 17.4 47.7zM11.6 6.9c2.6-1.6 5.5-2.6 8.4-2.6 1.8 0 3.5 0.3 5.1 0.8 2.7 0.9 5 2.7 7.4 5.8l0.1 0.1c1.5 1.6 3.1 1.9 4.2 1.9 0.9 0 2.7-0.3 4.2-1.9 0.1-0.1 0.1-0.3 0.3-0.4l0.1-0.1c0.9-1.1 1.8-2 2.6-2.8 2.6-2.4 5.8-3.6 9.3-3.6 2.7 0 5.7 0.8 8.1 2.3 4.7 2.8 7.2 6.3 7.8 10.9 0.7 4.3-0.3 8.1-2.8 12 -2.8 4.3-6.2 8-9.5 11.6l-0.1 0.1c-5.9 6.3-12.4 12.7-19.2 19.2 -0.3 0.3-0.7 0.5-0.9 0.5 -0.3 0-0.4-0.1-0.5-0.1l-1.1-1.2 -3.8-3.5c-1.5-1.5-3-3-4.4-4.4 -2.3-2.2-4.7-4.4-6.8-6.6 -5.4-5.4-9.2-9.7-12.6-14.4 -2.4-3.5-3.6-6.8-3.6-10C4 14.6 6.5 10.1 11.6 6.9z" fill="#010202"/></svg>