<svg xmlns="http://www.w3.org/2000/svg" width="50" height="86" viewBox="0 0 50.4 86.1"><path d="M49.4 65.7L19.5 50.1V1.9C19.5 0.8 18.7 0 17.6 0s-1.9 0.8-1.9 1.9v43.1h-3.2V1.9C12.5 0.8 11.7 0 10.6 0 9.5 0 8.7 0.8 8.7 1.9v49.1L1.4 58.3c-0.1 0-0.1 0.1-0.3 0.3 -0.9 1.3-1.3 3.1-0.9 4.8 0.4 1.8 1.3 3.2 2.8 4.2l28 18.2c0.3 0.1 0.7 0.3 1.1 0.3 0.5 0 1.1-0.1 1.5-0.7L49.9 68.9c0.4-0.5 0.7-1.1 0.5-1.8C50.3 66.5 49.9 65.9 49.4 65.7zM15.7 47.3v8.2c0 0.4-0.3 0.8-0.8 0.8h-1.6c-0.4 0-0.8-0.3-0.8-0.8v-8.2H15.7zM4 62.7c-0.1-0.5 0-1.2 0.3-1.8l4.5-4.5c0.4 2.1 2.4 3.8 4.6 3.8h1.6c2.6 0 4.7-2.2 4.4-4.7v-1l20.5 10.6L27 78.5 5 64.2C4.5 63.9 4.1 63.4 4 62.7zM31.7 81.7l-2.9-1.9L42 66.3l3.2 1.6L31.7 81.7z" fill="#010202"/></svg>