<svg xmlns="http://www.w3.org/2000/svg" width="786" height="786" viewBox="152 597.7 785.7 785.7"><path d="M896 1383.4H193.7c-23 0-41.7-18.8-41.7-41.7V639.4c0-23 18.8-41.7 41.7-41.7h702.2c23 0 41.7 18.8 41.7 41.7v702.2C937.7 1364.6 918.9 1383.4 896 1383.4z" fill="#F2EB33"/><path d="M726.9 990.7V785.2H510.2 337.4c1.7 5.9 1.4 12.2-0.7 17.7 4.9 3.5 9 8 11.5 13.9 6.3 15.3-2.1 32.7-18.8 38.3 -1.4 0.3-2.4 0.7-3.8 1 0.3 12.5-7.7 24-20.9 28.9 -3.8 1.4-7.3 1.7-11.1 1.7v104h69.2v205.6h216.7 216.7V990.7H726.9z" fill="#FFF"/><path d="M302.2 877c9.7-3.5 16-11.8 15.7-21.2l-0.3-6.3 6.3-1.4c0.7 0 1.7-0.3 2.8-0.7 6.3-2.1 11.1-6.6 13.6-12.2 2.4-5.2 2.4-10.8 0.3-16 -1.7-3.8-4.5-7.7-8.3-10.1l-4.2-2.8c4.2-2.8 7-7.7 7-13.2 0-8-5.9-14.6-13.6-16H285.9v101.2h7.7C296.7 878.4 299.5 878 302.2 877z" fill="#1D9185"/><path d="M734.6 983.1V777.2H517.9h-15.3H321.4c7.7 1.4 13.6 8 13.6 16 0 5.6-2.8 10.4-7 13.2l4.2 2.8c3.8 2.4 6.6 6.3 8.3 10.1 2.1 5.2 2.1 10.8-0.3 16 -2.4 5.6-7.3 10.1-13.6 12.2 -1 0.3-2.1 0.7-2.8 0.7l-6.3 1.4 0.3 6.3c0.3 9.4-5.9 17.7-15.7 21.2 -2.8 1-5.6 1.4-8.7 1.4H285.9v119.6h69.2v205.9H571.8h15.3 216.7V983.1H734.6zM517.9 792.8h201v189.9H517.9V792.8zM301.2 893.3c2.1-0.3 4.2-1 5.9-1.7 13.9-4.9 23.7-16.7 25.4-30.3 9.7-3.8 17.4-10.8 21.6-20.2 4.2-9 4.2-19.1 0.7-28.2 -2.1-5.2-5.6-10.1-9.7-13.9 0.3-2.4 0.7-4.5 0.7-7H501.9v190.6H301.2V893.3zM571.8 1188.6H370.8V998.7H571.8V1188.6zM788.1 1188.6H587.1V998.7h201V1188.6z" fill="#0E0D0D"/></svg>