<svg xmlns="http://www.w3.org/2000/svg" width="61" height="87" viewBox="0 0 61.1 86.9"><style>.a{fill:#010202;}</style><path d="M0 56.3c0 16.8 13.7 30.6 30.6 30.6 17 0 30.6-13.7 30.6-30.5 0-13.1-8.4-24.4-20-28.7L53 2.9c0.3-0.7 0.3-1.5-0.1-2S51.8 0 51.1 0h-12.5c-0.8 0-1.5 0.4-1.9 1.1l-7.6 15.2L21.6 1.2c-0.4-0.7-1.1-1.1-1.9-1.1H7.2c-0.7 0-1.3 0.4-1.7 0.9 -0.4 0.7-0.4 1.3-0.1 2l12.4 25.7C7.3 33.6 0 44.1 0 56.3zM39.8 3.9h8.1L37.1 26.6c-2.1-0.5-4.3-0.7-6.6-0.7 -0.6 0-1.2 0-1.8 0.1L39.8 3.9zM10.4 4.1h8.1l8.4 16.6c0 0.1 0.1 0.1 0.1 0.1l-2.9 5.8c-0.8 0.2-1.7 0.4-2.5 0.7L10.4 4.1zM30.6 29.9c14.7 0 26.5 11.9 26.5 26.5 0 14.7-11.9 26.5-26.5 26.5S4.1 70.9 4.1 56.3 15.9 29.9 30.6 29.9z" class="a"/><path d="M11.2 53c0.1 0.5 0.7 0.9 1.2 0.9 0.7 0 1.2-0.5 1.1-1.2 -0.8-6.7 3.8-12.9 10.4-13.9 0.5-0.1 1.1-0.7 0.9-1.3 -0.1-0.5-0.7-1.1-1.3-0.9C15.6 37.6 10.1 45 11.2 53z" class="a"/></svg>