<svg xmlns="http://www.w3.org/2000/svg" width="61" height="87" viewBox="752.7 861 61.1 87"><style>.a{fill:#3E3A39;}.b{fill:#040404;}</style><path d="M1433.7 1478.8c-0.4 0-0.7 0.3-0.7 0.7s0.3 0.7 0.7 0.7c0.4 0 0.7-0.3 0.7-0.7S1433.9 1478.8 1433.7 1478.8z" class="a"/><path d="M1440.1 1478.8c-0.4 0-0.7 0.3-0.7 0.7s0.3 0.7 0.7 0.7c0.4 0 0.7-0.3 0.7-0.7S1440.4 1478.8 1440.1 1478.8z" class="a"/><path d="M476.1 1079.5l-30-15.6v-48.4c0-1.1-0.8-1.9-1.9-1.9s-1.9 0.8-1.9 1.9v43.2h-3.2v-43.2c0-1.1-0.8-1.9-1.9-1.9 -1.1 0-1.9 0.8-1.9 1.9v49.3l-7.4 7.3c-0.1 0-0.1 0.1-0.3 0.3 -0.9 1.3-1.3 3.1-0.9 4.8 0.4 1.8 1.3 3.2 2.8 4.2l28.1 18.3c0.3 0.1 0.7 0.3 1.1 0.3 0.5 0 1.1-0.1 1.5-0.7l16.4-16.6c0.4-0.5 0.7-1.1 0.5-1.8C477 1080.3 476.6 1079.7 476.1 1079.5zM442.3 1061.1v8.2c0 0.4-0.3 0.8-0.8 0.8h-1.6c-0.4 0-0.8-0.3-0.8-0.8v-8.2H442.3zM430.6 1076.5c-0.1-0.5 0-1.2 0.3-1.8l4.5-4.5c0.4 2.1 2.4 3.8 4.6 3.8h1.6c2.6 0 4.7-2.2 4.4-4.7v-1l20.6 10.6 -13 13.5 -22-14.4C431.1 1077.7 430.7 1077.2 430.6 1076.5zM458.4 1095.6l-2.9-1.9 13.2-13.6 3.2 1.6L458.4 1095.6z" class="b"/><path d="M752.7 917.4c0 16.8 13.7 30.6 30.6 30.6 17 0 30.6-13.7 30.6-30.6 0-13.1-8.4-24.4-20-28.7l11.9-24.8c0.3-0.7 0.3-1.5-0.1-2s-1.1-0.9-1.8-0.9h-12.5c-0.8 0-1.5 0.4-1.9 1.1l-7.6 15.2 -7.6-15.1c-0.4-0.7-1.1-1.1-1.9-1.1h-12.5c-0.7 0-1.3 0.4-1.7 0.9 -0.4 0.7-0.4 1.3-0.1 2l12.4 25.7C760 894.7 752.7 905.2 752.7 917.4zM792.6 864.9h8.1l-10.8 22.7c-2.1-0.5-4.3-0.7-6.6-0.7 -0.6 0-1.2 0-1.8 0.1L792.6 864.9zM763.1 865.1h8.1l8.4 16.6c0 0.1 0.1 0.1 0.1 0.1l-2.9 5.8c-0.8 0.2-1.7 0.4-2.5 0.7L763.1 865.1zM783.3 890.9c14.7 0 26.5 11.9 26.5 26.5 0 14.7-11.9 26.5-26.5 26.5s-26.5-11.9-26.5-26.5C756.8 902.8 768.6 890.9 783.3 890.9z" class="b"/><path d="M763.9 914.1c0.1 0.5 0.7 0.9 1.2 0.9 0.7 0 1.2-0.5 1.1-1.2 -0.8-6.7 3.8-12.9 10.4-13.9 0.5-0.1 1.1-0.7 0.9-1.3 -0.1-0.5-0.7-1.1-1.3-0.9C768.3 898.7 762.8 906.1 763.9 914.1z" class="b"/><path d="M485 880.5c0-1.1-0.8-1.9-1.9-1.9h-76.6c-1.1 0-1.9 0.8-1.9 1.9v51.7c0 1.1 0.8 1.9 1.9 1.9h76.6c1.1 0 2-0.9 1.9-1.9V880.5zM408.3 883.5l23.3 22.1 -23.3 23.1V883.5zM455.8 904.9c0 0 0 0 0 0 0 0 0 0 0 0l-10.9 10.3 -34.7-33h69.5L455.8 904.9zM433.1 907.1l11 10.5c0.1 0.1 0.4 0.3 0.7 0.3 0.3 0 0.5 0 0.7-0.4l10.9-10.4 23.3 23.1h-69.9L433.1 907.1zM458 905.7l23.2-22v45.1L458 905.7z" class="b"/><path d="M336.8 1055.8c-3.8-12.1-10.8-22.1-17.9-31.2 -0.4-0.7-1.1-0.9-1.9-0.9 -0.7 0-1.5 0.4-1.9 0.9 -6.3 7.9-14.1 18.9-18.2 32.1 -2.3 7.9-2.7 15.2-0.8 22.2 2.3 9.3 10 15.6 19.5 16 0.4 0 0.8 0 1.2 0 3.1 0 5.9-0.6 8.5-1.6 3.3 0.7 6.8 1 10.3 1 5.7 0 11.4-0.9 17.1-2.8 9.2-3 17.2-8.2 22.8-14.9 0.7-0.9 0.7-2.3 0-3.2C367.3 1062.6 349.4 1054.7 336.8 1055.8zM315.8 1090.6c-7.7-0.4-13.9-5.5-15.9-13.1 -1.6-6.2-1.3-12.8 0.8-20.1 3.6-11.7 10.4-21.7 16.3-29.2 7.5 9.7 14.7 20.6 17.4 33.7 1.3 6.5 1.1 12.1-0.8 17.2 -2.6 7-8.9 11.4-16.7 11.4C316.5 1090.6 316.2 1090.6 315.8 1090.6zM331 1089.9c2.8-2.3 5-5.4 6.3-9.1 2.2-5.9 2.4-12.3 0.9-19.4 -0.1-0.6-0.3-1.1-0.4-1.6 10.9-0.6 26.1 6.2 33.6 15.1C362.1 1085.4 346 1091.4 331 1089.9z" class="b"/><path d="M312.6 1042.4c-5 7.5-7.5 14.8-8.1 22.5v0.7c0 0.4 0 0.9 0.1 1.5 0.1 0.5 0.5 0.9 1.1 0.9 0.1 0 0.1 0 0.3-0.1 0.5-0.1 0.9-0.7 0.8-1.3 0-0.1 0-0.5 0-0.8v-0.7c0.5-7.1 3-14.1 7.7-21.3 0.4-0.5 0.3-1.2-0.3-1.6S313 1041.9 312.6 1042.4z" class="b"/><path d="M562 1015.1c-23.4 0-42.6 19.1-42.6 42.6 0 23.4 19.1 42.6 42.6 42.6 23.6 0 42.7-19.1 42.6-42.6C604.6 1034.2 585.4 1015.1 562 1015.1zM562 1096c-21.3 0-38.5-17.2-38.5-38.5s17.2-38.5 38.5-38.5 38.5 17.4 38.5 38.5C600.5 1078.8 583.3 1096 562 1096z" class="b"/><path d="M545 1050.5c1.9 0 3.4-1.5 3.4-3.4 0-1.9-1.5-3.4-3.4-3.4 -1.9 0-3.4 1.5-3.4 3.4C541.7 1049 543.2 1050.5 545 1050.5z" class="b"/><path d="M579 1050.5c1.9 0 3.4-1.5 3.4-3.4 0-1.9-1.5-3.4-3.4-3.4s-3.4 1.5-3.4 3.4C575.6 1049 577.1 1050.5 579 1050.5z" class="b"/><path d="M584.9 1069.4c-0.9-0.7-2.2-0.4-2.8 0.5 -4.2 6.5-11.7 10.4-20.1 10.4 -8.3 0-15.9-3.9-20.1-10.4 -0.7-0.9-1.9-1.2-2.8-0.5 -0.9 0.7-1.2 1.9-0.5 2.8 5 7.5 13.7 12.1 23.4 12.1 9.7 0 18.6-4.4 23.4-12.1C586.1 1071.2 585.9 1070 584.9 1069.4z" class="b"/><path d="M710.3 941.4c1.2 0 2.2-0.9 2-2v-63.7c0-1.1-0.9-2-2-2h-5.3v-2.4c0-1.1-0.9-2-2-2s-2 0.9-2 2v2.4h-6.5v-2.4c0-1.1-0.9-2-2-2s-2 0.9-2 2v2.4h-6.6v-2.4c0-1.1-0.9-2-2-2s-2 0.9-2 2v2.4h-6.5v-2.4c0-1.1-0.9-2-2-2s-2 0.9-2 2v2.4h-6.6v-2.4c0-1.1-0.9-2-2-2s-2 0.9-2 2v2.4h-6.5v-2.4c0-1.1-0.9-2-2-2s-2 0.9-2 2v2.4h-6.6v-2.4c0-1.1-0.9-2-2-2s-2 0.9-2 2v2.4h-5.3c-1.1 0-2 0.9-2 2v63.7c0 1.1 0.9 2 2 2H710.3zM634.5 877.7h3.1v1.8c0 1.1 0.9 2 2 2s2-0.9 2-2v-1.7h6.6v1.8c0 1.1 0.8 2 2 2 1.1 0 2-0.9 2-2v-1.7h6.5v1.8c0 1.1 0.9 2 2 2 1.2 0 2-0.9 2-2v-1.7h6.6v1.8c0 1.1 0.9 2 2 2s2-0.9 2-2v-1.7h6.5v1.8c0 1.1 0.8 2 2 2s2-0.9 2-2v-1.7h6.6v1.8c0 1.1 0.9 2 2 2s2-0.9 2-2v-1.7h6.5v1.8c0 1.1 0.9 2 2 2 1.2 0 2.2-0.9 2-2v-1.7h3.2v59.7h-73.8V877.7z" class="b"/><path d="M660.1 901.7h30.2c0.7 0 1.2-0.5 1.2-1.2 0-0.7-0.5-1.2-1.2-1.2H660.1c-0.7 0-1.2 0.5-1.2 1.2C658.8 901.1 659.4 901.7 660.1 901.7z" class="b"/><path d="M690.2 911.9c0.7 0 1.2-0.5 1.2-1.2 0-0.7-0.5-1.2-1.2-1.2H660.1c-0.7 0-1.2 0.5-1.2 1.2 0 0.7 0.5 1.2 1.2 1.2H690.2z" class="b"/><path d="M690.6 919.9h-30.2c-0.7 0-1.2 0.5-1.2 1.2 0 0.7 0.5 1.2 1.2 1.2h30.2c0.5 0 1.2-0.5 1.2-1.2C691.8 920.4 691.3 919.9 690.6 919.9z" class="b"/><circle cx="650.6" cy="921.1" r="1.6" class="b"/><circle cx="650.6" cy="910.8" r="1.6" class="b"/><circle cx="650.6" cy="900.5" r="1.6" class="b"/><path d="M674.9 1015.2c-23.4 0-42.6 19.1-42.6 42.6 0 23.4 19.1 42.6 42.6 42.6 23.4 0 42.6-19.1 42.6-42.6C717.4 1034.3 698.3 1015.2 674.9 1015.2zM674.9 1096.3c-21.3 0-38.5-17.2-38.5-38.5s17.2-38.5 38.5-38.5c21.1 0 38.5 17.2 38.5 38.5S696.2 1096.3 674.9 1096.3z" class="b"/><path d="M657.9 1050.8c1.9 0 3.4-1.5 3.4-3.4 0-1.9-1.6-3.4-3.4-3.4 -1.9 0-3.4 1.5-3.4 3.4C654.5 1049.3 656 1050.8 657.9 1050.8z" class="b"/><path d="M691.8 1050.8c1.9 0 3.4-1.5 3.4-3.4 0-1.9-1.6-3.4-3.4-3.4 -1.9 0-3.4 1.5-3.4 3.4C688.5 1049.3 690 1050.8 691.8 1050.8z" class="b"/><path d="M696.6 1071.9h-43.5c-1.1 0-2 0.9-2 2s0.9 2 2 2h43.5c1.2 0 2.2-0.9 2-2C698.6 1072.9 697.6 1071.9 696.6 1071.9z" class="b"/><path d="M787.1 1018.2c-23.4 0-42.6 19.1-42.6 42.6 0 23.4 19.1 42.6 42.6 42.6 23.6 0 42.7-19.1 42.6-42.6C829.6 1037.3 810.5 1018.2 787.1 1018.2zM787.1 1099.3c-21.3 0-38.5-17.2-38.5-38.5s17.2-38.5 38.5-38.5c21.3 0 38.5 17.2 38.5 38.5S808.3 1099.3 787.1 1099.3z" class="b"/><path d="M787.1 1067.9c-9.7 0-18.4 4.4-23.4 12.1 -0.7 0.9-0.4 2.2 0.5 2.8 0.9 0.7 2.2 0.4 2.8-0.5 4.2-6.5 11.7-10.4 20.1-10.4 8.4 0 15.9 3.9 20.1 10.4 0.4 0.7 1.1 0.9 1.8 0.9 0.4 0 0.8-0.1 1.1-0.4 0.9-0.7 1.2-1.9 0.5-2.8C805.5 1072.5 796.8 1067.9 787.1 1067.9z" class="b"/><path d="M770.1 1053.6c1.9 0 3.4-1.5 3.4-3.4 0-1.9-1.5-3.4-3.4-3.4s-3.4 1.5-3.4 3.4C766.7 1052.1 768.2 1053.6 770.1 1053.6z" class="b"/><path d="M804 1053.6c1.9 0 3.4-1.5 3.4-3.4 0-1.9-1.5-3.4-3.4-3.4 -1.9 0-3.4 1.5-3.4 3.4C800.7 1052.1 802.1 1053.6 804 1053.6z" class="b"/><path d="M298.9 923h23.5c-1.3 2.7-2.2 5.6-2.5 8.8 0 0.5 0.1 1.2 0.5 1.6s0.9 0.7 1.5 0.7h48.6c1.2 0 2-0.9 2.2-2 0-0.1 0-0.3 0-0.4 -1.3-10.6-8.6-19.2-18.2-22.3 3.6-2.6 6-6.9 6-11.7 0-7.9-6.5-14.4-14.4-14.4 -3.1 0-6 1-8.4 2.7 -0.3-7.6-6.7-13.8-14.4-13.8 -7.9 0-14.4 6.5-14.4 14.4 0 4.8 2.4 9.1 6 11.7 -9.6 3.2-16.9 11.7-18 22.4 0 0.5 0.1 1.2 0.5 1.6S298.3 923 298.9 923zM368.1 929.8h-43.9c2.3-10.2 11.3-17.8 22-17.8S365.9 919.5 368.1 929.8zM346 887.4c5.7 0 10.2 4.6 10.2 10.2 0 5.7-4.6 10.2-10.2 10.2 -2.5 0-4.8-0.9-6.6-2.4 -0.8-0.9-1.6-1.8-2.3-2.7 -0.9-1.5-1.4-3.3-1.4-5.1C335.8 892 340.3 887.4 346 887.4zM313 886.6c0-5.7 4.6-10.2 10.2-10.2s10.2 4.7 10.2 10.2c0 5.7-4.6 10.2-10.2 10.2S313 892.3 313 886.6zM323.4 901.1c4.3 0 6.3 0.1 9.2 1.8 0.1 0.1 0.1 0.2 0.2 0.4 1 2.3 2.5 4.2 4.4 5.7 0.1 0.1 0.1 0.2 0.2 0.2 -4.6 2-9.7 5.1-13.1 9.7h-23C303.4 908.6 312.5 901 323.4 901.1z" class="b"/><path d="M539 923.4c2.3 2.3 4.6 4.7 6.9 6.9 1.5 1.5 3 3 4.4 4.4l3.6 3.5 1.2 1.2c0.7 0.7 1.9 1.3 3.4 1.3 1.2 0 2.4-0.5 3.8-1.6 7-6.6 13.6-13.1 19.7-19.5l0.1-0.1c3.4-3.8 7-7.7 10-12.3 3.1-4.7 4.2-9.6 3.4-14.9 -0.8-6.1-4.2-10.5-9.8-14 -3.2-1.9-6.9-3-10.4-3 -4.7 0-9 1.6-12.3 4.7 -0.8 0.9-1.8 1.9-2.7 3l-0.3 0.3c-0.1 0.1-0.1 0.3-0.3 0.4 -0.4 0.4-0.7 0.4-0.9 0.4 -0.5 0-0.9-0.3-1.2-0.5 -3-3.6-6.1-5.8-9.4-7 -2-0.7-4.2-1.1-6.3-1.1 -3.8 0-7.4 1.1-10.8 3.2 -6.3 4-9.6 9.8-9.6 17.1 0 4.2 1.5 8.2 4.4 12.5C529.4 913.1 533.5 917.7 539 923.4zM533.2 882.3c2.6-1.6 5.5-2.6 8.5-2.6 1.8 0 3.5 0.3 5.1 0.8 2.7 0.9 5 2.7 7.5 5.8l0.1 0.1c1.5 1.6 3.1 1.9 4.2 1.9 0.9 0 2.7-0.3 4.2-1.9 0.1-0.1 0.1-0.3 0.3-0.4l0.1-0.1c0.9-1.1 1.8-2 2.6-2.8 2.6-2.4 5.8-3.6 9.4-3.6 2.7 0 5.7 0.8 8.2 2.3 4.7 2.8 7.3 6.3 7.9 11 0.7 4.3-0.3 8.2-2.8 12.1 -2.8 4.3-6.2 8.1-9.6 11.7l-0.1 0.1c-5.9 6.3-12.5 12.8-19.4 19.3 -0.3 0.3-0.7 0.5-0.9 0.5 -0.3 0-0.4-0.1-0.5-0.1l-1.1-1.2 -3.8-3.5c-1.5-1.5-3-3-4.4-4.4 -2.3-2.2-4.7-4.4-6.9-6.7 -5.4-5.4-9.3-9.8-12.7-14.5 -2.4-3.5-3.6-6.9-3.6-10.1C525.5 890 528.1 885.5 533.2 882.3z" class="b"/></svg>