<svg xmlns="http://www.w3.org/2000/svg" width="288" height="271" viewBox="200.7 705.2 287.7 270.9"><style>.a{fill:#040404;}</style><path d="M486.2 963.1l-21.7-21.7h11.3c4.2 0 7.6-3.4 7.5-7.6 0-0.5 0-1-0.1-1.4 -4.6-39.4-31.7-71.2-67.5-83 13.4-9.7 22.2-25.6 22.2-43.4 0-29.6-24-53.6-53.6-53.6 -11.7 0-22.6 3.8-31.4 10.2 -1.4-28.4-24.8-51-53.6-51 -17.6 0-33.3 8.6-43.1 21.7l-25.8-25.8c-3-3-7.8-3-10.8 0s-3 7.8 0 10.8l29.1 29.1c-2 5.6-3.1 11.6-3.1 17.9 0 17.9 8.8 33.7 22.2 43.4 -35.8 11.9-62.8 43.9-67.2 83.5 -0.2 2.1 0.5 4.3 1.9 5.9 1.5 1.6 3.5 2.6 5.7 2.6h87.4c-4.8 9.9-8 20.8-9.3 32.4 -0.2 2.1 0.5 4.3 1.9 5.9 1.5 1.6 3.5 2.6 5.7 2.6h148.8l32.5 32.5c1.5 1.4 3.5 2.2 5.4 2.2 2 0 3.9-0.8 5.4-2.2C489.1 970.9 489.1 966.1 486.2 963.1zM466.8 926.2H449.2l-66.4-66.4c0.7 0 1.4 0 2.1 0C424.8 859.7 458.6 887.7 466.8 926.2zM384.3 767.7c21.1 0 38.4 17.2 38.4 38.4 0 21.1-17.2 38.4-38.4 38.4 -8.9 0-17.1-3.1-23.7-8.2 -3.9-3.9-7.6-8.2-10.3-12.4 -2.8-5.3-4.4-11.3-4.4-17.7C345.9 784.9 363.1 767.7 384.3 767.7zM299.3 726.9c21.1 0 38.4 17.1 38.4 38.4 0 13.4-6.9 25.2-17.4 32.1l-53.1-53.1C274.1 733.8 285.9 726.9 299.3 726.9zM260.9 765.2c0-1.8 0.1-3.6 0.4-5.4l43.4 43.4c-1 0.1-2 0.2-3 0.3 -0.9 0-1.7 0-2.6 0 -0.6 0-1.2 0-1.8 0C277.1 802.5 260.9 785.7 260.9 765.2zM299.2 818.8c10.1 0 16.7 0.2 22.8 1.7l28.9 28.9c-16.8 7.7-35.5 19.3-47.7 35.8h-85.9C225.5 846.8 259.3 818.8 299.2 818.8zM303 926.2c6.7-31.5 30.5-56 60.8-63.8l63.8 63.8H303z" class="a"/><path d="M867 968.5H669.9c-15.3 0-21-13-21-21.7V742.4c0-15.9 12.6-21.7 21-21.7h197.1c15.3 0 21 13 21 21.7v204.4C887.9 962.7 875.4 968.5 867 968.5zM662.6 946.7c0 0.2 0.1 2.5 1.1 4.5 0.9 1.5 2.2 3 6 3h197c0.2 0 2.4-0.1 4.3-1.2 1.5-0.9 3-2.3 3-6.3V742.5c0-0.2-0.1-2.5-1.1-4.5 -0.9-1.5-2.2-3-6-3h-197c-0.2 0-2.4 0.1-4.3 1.2 -1.5 0.9-3 2.3-3 6.3L662.6 946.7z"/><path d="M719.1 756.8c-3.8 0-6.9-3.1-6.9-7.1v-43.8c0-3.9 3-7.1 6.9-7.1s6.9 3.1 6.9 7.1v43.8C726 753.6 722.9 756.8 719.1 756.8z"/><path d="M817.7 756.8c-3.8 0-6.9-3.1-6.9-7.1v-43.8c0-3.9 3-7.1 6.9-7.1s6.9 3.1 6.9 7.1v43.8C824.5 753.6 821.5 756.8 817.7 756.8z"/><path d="M881 793.3H655.7c-3.8 0-6.9-3.1-6.9-7.1 0-3.9 3-7.1 6.9-7.1h225.3c3.8 0 6.9 3.1 6.9 7.1C887.9 790.1 884.8 793.3 881 793.3z"/><path d="M712.1 965.3c-2.1 0-3.8-1.8-3.8-4V786.2c0-2.2 1.7-4 3.8-4 2.1 0 3.8 1.8 3.8 4v175.1C715.9 963.5 714.2 965.3 712.1 965.3z"/><path d="M768.4 965.3c-2.1 0-3.8-1.8-3.8-4V786.2c0-2.2 1.7-4 3.8-4 2.1 0 3.8 1.8 3.8 4v175.1C772.3 963.5 770.5 965.3 768.4 965.3z"/><path d="M824.7 965.3c-2.1 0-3.8-1.8-3.8-4V786.2c0-2.2 1.7-4 3.8-4 2.1 0 3.8 1.8 3.8 4v175.1C828.5 963.5 826.8 965.3 824.7 965.3z"/><path d="M881 848.5H655.7c-2.1 0-3.8-1.8-3.8-4s1.7-4 3.8-4h225.3c2.1 0 3.8 1.8 3.8 4C884.8 846.8 883.2 848.5 881 848.5z"/><path d="M881 906.9H655.8c-2.1 0-3.8-1.8-3.8-4 0-2.2 1.7-3.9 3.8-3.9h225.3c2.1 0 3.8 1.8 3.8 3.9C884.8 905.1 883.2 906.9 881 906.9z"/><path d="M930.6 1310.4H649.1c-4.3 0-7.8-3.2-7.8-7.2v-193.3c0-4 3.5-7.2 7.8-7.2h281.5c4.3 0 7.8 3.2 7.8 7.2v193.3C938.4 1307.1 934.9 1310.4 930.6 1310.4zM656.9 1295.9h265.9v-178.9H656.9V1295.9z"/><path d="M880.1 1181.1h-180.5c-2.4 0-4.4-1.8-4.4-4s1.9-4 4.4-4h180.5c2.4 0 4.4 1.8 4.4 4S882.4 1181.1 880.1 1181.1z"/><path d="M880.1 1216.4h-180.5c-2.4 0-4.4-1.8-4.4-4s1.9-4 4.4-4h180.5c2.4 0 4.4 1.8 4.4 4S882.4 1216.4 880.1 1216.4z"/><path d="M839.4 1251.7H699.6c-2.4 0-4.4-1.8-4.4-4s1.9-4 4.4-4h139.8c2.4 0 4.4 1.8 4.4 4S841.8 1251.7 839.4 1251.7z"/><path d="M317.3 1173.2c-29.5 0-53.6-24-53.6-53.6 0-29.5 24-53.6 53.6-53.6s53.6 24 53.6 53.6C370.9 1149.2 346.8 1173.2 317.3 1173.2zM317.3 1081.2c-21.1 0-38.4 17.2-38.4 38.4 0 21.1 17.2 38.4 38.4 38.4s38.4-17.2 38.4-38.4C355.7 1098.5 338.5 1081.2 317.3 1081.2z" class="a"/><path d="M402.3 1214.1c-29.5 0-53.6-24-53.6-53.6 0-29.5 24-53.6 53.6-53.6s53.6 24 53.6 53.6C455.8 1190.1 431.8 1214.1 402.3 1214.1zM402.3 1122.2c-21.1 0-38.4 17.2-38.4 38.4 0 21.1 17.2 38.4 38.4 38.4s38.4-17.2 38.4-38.4C440.7 1139.4 423.4 1122.2 402.3 1122.2z" class="a"/><path d="M325.1 1254.9h-98.8c-2.2 0-4.2-1-5.7-2.6 -1.4-1.6-2.1-3.8-1.9-5.9 5.6-50.5 47.9-88.6 98.4-88.6 19.3 0 29.3 1 44.3 9.7 1.4 0.9 2.6 2.2 3.2 3.8 3.8 9.7 14.9 21.1 24.2 28.1 2.2 1.7 3.3 4.4 3 7.1s-2.3 5-4.9 6.1c-18.3 6.9-42.7 19.2-55.4 38.8C330.2 1253.7 327.7 1254.9 325.1 1254.9zM235.3 1239.7h85.9c12.5-16.9 31.6-28.6 48.7-36.3 -7.2-6.9-14.3-15.3-18.3-23.8 -10.6-5.8-18-6.4-34.4-6.4C277.3 1173.2 243.5 1201.3 235.3 1239.7z" class="a"/><path d="M493.8 1295.9L493.8 1295.9H312.1c-2.2 0-4.2-1-5.7-2.6 -1.4-1.6-2.1-3.8-1.9-5.9 5.6-50.5 47.9-88.5 98.4-88.5 50.3 0 92.5 37.8 98.4 87.9 0.1 0.5 0.1 1 0.1 1.4C501.4 1292.4 498 1295.9 493.8 1295.9zM321 1280.6h163.8c-8.2-38.5-42-66.5-81.9-66.5C363 1214.1 329.2 1242.2 321 1280.6z" class="a"/></svg>