<svg xmlns="http://www.w3.org/2000/svg" width="76" height="62" viewBox="0 0 75.8 61.8"><path d="M57.6 37.1c3.6-2.6 6-6.9 6-11.7 0-7.9-6.5-14.4-14.4-14.4 -3.1 0-6 1-8.4 2.7C40.4 6.1 34.1 0 26.4 0c-7.9 0-14.4 6.5-14.4 14.4 0 4.8 2.4 9.1 6 11.7C8.4 29.3 1.2 37.8 0 48.5c0 0.5 0.1 1.2 0.5 1.6s0.9 0.7 1.5 0.7h23.5c-1.3 2.7-2.2 5.6-2.5 8.8 0 0.5 0.1 1.2 0.5 1.6s0.9 0.7 1.5 0.7H73.7c1.2 0 2-0.9 2.2-2 0-0.1 0-0.3 0-0.4C74.5 48.8 67.2 40.2 57.6 37.1zM49.2 15.2c5.7 0 10.2 4.6 10.2 10.2 0 5.7-4.6 10.2-10.2 10.2 -2.5 0-4.8-0.9-6.6-2.4 -0.8-0.9-1.6-1.8-2.3-2.7 -0.9-1.5-1.4-3.3-1.4-5.1C38.9 19.8 43.5 15.2 49.2 15.2zM16.2 14.4c0-5.7 4.6-10.2 10.2-10.2s10.2 4.7 10.2 10.2c0 5.7-4.6 10.2-10.2 10.2S16.2 20.1 16.2 14.4zM26.5 29c4.3 0 6.3 0.1 9.2 1.8 0.1 0.1 0.1 0.2 0.2 0.4 1 2.3 2.5 4.2 4.4 5.7 0.1 0.1 0.1 0.2 0.2 0.2 -4.6 2-9.7 5.1-13.1 9.7H4.4C6.6 36.4 15.6 28.8 26.5 29zM27.3 57.6c2.3-10.2 11.3-17.8 22-17.8s19.8 7.4 22 17.8H27.3z" fill="#040505"/></svg>