<svg xmlns="http://www.w3.org/2000/svg" width="85" height="85" viewBox="0 0 85.1 85.1"><style>.a{fill:#010202;}</style><path d="M42.6 0C19.2 0 0 19.1 0 42.6 0 65.9 19.1 85.1 42.6 85.1c23.6 0 42.6-19.1 42.5-42.5S65.9 0 42.6 0zM42.6 81c-21.3 0-38.5-17.2-38.5-38.5S21.3 4.1 42.6 4.1c21.3 0 38.5 17.2 38.5 38.5S63.7 81 42.6 81z" class="a"/><path d="M42.6 49.6c-9.7 0-18.4 4.4-23.4 12.1 -0.7 0.9-0.4 2.2 0.5 2.8 0.9 0.7 2.2 0.4 2.8-0.5 4.2-6.5 11.7-10.4 20.1-10.4 8.4 0 15.9 3.9 20.1 10.4 0.4 0.7 1.1 0.9 1.8 0.9 0.4 0 0.8-0.1 1.1-0.4 0.9-0.7 1.2-1.9 0.5-2.8C60.9 54.2 52.2 49.6 42.6 49.6z" class="a"/><path d="M25.6 35.4c1.9 0 3.4-1.5 3.4-3.4 0-1.9-1.5-3.4-3.4-3.4 -1.9 0-3.4 1.5-3.4 3.4C22.2 33.9 23.7 35.4 25.6 35.4z" class="a"/><path d="M59.4 35.4c1.9 0 3.4-1.5 3.4-3.4 0-1.9-1.5-3.4-3.4-3.4 -1.9 0-3.4 1.5-3.4 3.4C56.1 33.9 57.5 35.4 59.4 35.4z" class="a"/></svg>