<svg xmlns="http://www.w3.org/2000/svg" width="82" height="72" viewBox="0 0 81.7 71.9"><style>.a{fill:#010202;}</style><path d="M79.7 71.9c1.2 0 2.2-0.9 2-2V6.4c0-1.1-0.9-2-2-2h-5.3V2C74.4 0.9 73.5 0 72.4 0s-2 0.9-2 2v2.4h-6.5V2C63.9 0.9 63 0 61.9 0s-2 0.9-2 2v2.4h-6.6V2C53.4 0.9 52.5 0 51.4 0c-1.1 0-2 0.9-2 2v2.4h-6.5V2C42.9 0.9 42 0 40.9 0c-1.1 0-2 0.9-2 2v2.4h-6.6V2C32.3 0.9 31.4 0 30.3 0c-1.1 0-2 0.9-2 2v2.4h-6.5V2C21.8 0.9 20.9 0 19.8 0c-1.1 0-2 0.9-2 2v2.4h-6.6V2C11.3 0.9 10.4 0 9.3 0 8.2 0 7.3 0.9 7.3 2v2.4H2C0.9 4.4 0 5.3 0 6.4v63.5C0 71 0.9 71.9 2 71.9H79.7zM4.1 8.4H7.2v1.8c0 1.1 0.9 2 2 2 1.1 0 2-0.9 2-2V8.5h6.6v1.8c0 1.1 0.8 2 2 2 1.1 0 2-0.9 2-2V8.6h6.5v1.8c0 1.1 0.9 2 2 2 1.2 0 2-0.9 2-2V8.7h6.6v1.8c0 1.1 0.9 2 2 2 1.1 0 2-0.9 2-2V8.8h6.5v1.8c0 1.1 0.8 2 2 2 1.2 0 2-0.9 2-2V8.9h6.6v1.8c0 1.1 0.9 2 2 2 1.1 0 2-0.9 2-2V9h6.5v1.8c0 1.1 0.9 2 2 2 1.2 0 2.2-0.9 2-2V9.1h3.2v59.5H3.9V8.4H4.1z" class="a"/><path d="M29.6 32.3h30.1c0.7 0 1.2-0.5 1.2-1.2s-0.5-1.2-1.2-1.2H29.6c-0.7 0-1.2 0.5-1.2 1.2C28.3 31.7 28.9 32.3 29.6 32.3z" class="a"/><path d="M59.6 42.5c0.7 0 1.2-0.5 1.2-1.2s-0.5-1.2-1.2-1.2H29.6c-0.7 0-1.2 0.5-1.2 1.2s0.5 1.2 1.2 1.2H59.6z" class="a"/><path d="M60 50.5H29.9c-0.7 0-1.2 0.5-1.2 1.2s0.5 1.2 1.2 1.2h30.1c0.5 0 1.2-0.5 1.2-1.2S60.7 50.5 60 50.5z" class="a"/><circle cx="20.1" cy="51.7" r="1.6" class="a"/><circle cx="20.1" cy="41.4" r="1.6" class="a"/><circle cx="20.1" cy="31.1" r="1.6" class="a"/></svg>